<svg xmlns="http://www.w3.org/2000/svg" version="1.1" xmlns:xlink="http://www.w3.org/1999/xlink" xmlns:svgjs="http://svgjs.com/svgjs" width="1440" height="560" preserveAspectRatio="none" viewBox="0 0 1440 560"><g mask="url(&quot;#SvgjsMask1178&quot;)" fill="none"><g transform="translate(0, 0)" stroke-linecap="round"><path d="M335 245.34 L335 314.65" stroke-width="41.25" stroke="rgba(44, 178, 210, 1)"></path><path d="M390 218.85 L390 341.15" stroke-width="41.25" stroke="rgba(160, 206, 217, 1)"></path><path d="M445 236.85 L445 323.14" stroke-width="41.25" stroke="rgba(44, 178, 210, 1)"></path><path d="M500 181.09 L500 378.91" stroke-width="41.25" stroke="rgba(160, 206, 217, 1)"></path><path d="M555 148.53 L555 411.47" stroke-width="41.25" stroke="rgba(160, 206, 217, 1)"></path><path d="M610 137.49 L610 422.51" stroke-width="41.25" stroke="rgba(44, 178, 210, 1)"></path><path d="M665 151.63 L665 408.37" stroke-width="41.25" stroke="rgba(44, 178, 210, 1)"></path><path d="M720 244.53 L720 315.47" stroke-width="41.25" stroke="rgba(44, 178, 210, 1)"></path><path d="M775 182.42 L775 377.58" stroke-width="41.25" stroke="rgba(44, 178, 210, 1)"></path><path d="M830 155.17 L830 404.83" stroke-width="41.25" stroke="rgba(44, 178, 210, 1)"></path><path d="M885 150.32 L885 409.68" stroke-width="41.25" stroke="rgba(160, 206, 217, 1)"></path><path d="M940 187.69 L940 372.31" stroke-width="41.25" stroke="rgba(160, 206, 217, 1)"></path><path d="M995 207.34 L995 352.66" stroke-width="41.25" stroke="rgba(160, 206, 217, 1)"></path><path d="M1050 233.95 L1050 326.05" stroke-width="41.25" stroke="rgba(160, 206, 217, 1)"></path><path d="M1105 249.47 L1105 310.52" stroke-width="41.25" stroke="rgba(44, 178, 210, 1)"></path></g></g><defs><mask id="SvgjsMask1178"><rect width="1440" height="560" fill="#ffffff"></rect></mask></defs></svg>